<svg xmlns="http://www.w3.org/2000/svg" viewBox="0 0 512 512">
  <g>
    <path fill="#5E7A8A" d="M384,106.667H128c-29.455,0-53.333,23.878-53.333,53.333v298.667C74.667,488.122,98.545,512,128,512h256c29.455,0,53.333-23.878,53.333-53.333V160C437.333,130.545,413.455,106.667,384,106.667z"/>
    <rect x="138.667" y="362.667" fill="#455A64" width="234.667" height="21.333"/>
    <rect x="138.667" y="405.333" fill="#455A64" width="149.333" height="21.333"/>
    <rect x="138.667" y="320" fill="#455A64" width="192" height="21.333"/>
    <rect x="138.667" y="277.333" fill="#455A64" width="128" height="21.333"/>
    <path fill="#607D8B" d="M405.333,106.667h-64V64c0-11.782-9.551-21.333-21.333-21.333h-21.333V21.333C298.667,9.551,289.116,0,277.333,0h-42.667c-11.782,0-21.333,9.551-21.333,21.333v21.333H192c-11.782,0-21.333,9.551-21.333,21.333v42.667h-64C83.198,106.667,64,125.864,64,149.333v309.333C64,482.136,83.198,512,106.667,512h298.667C428.802,512,448,482.136,448,458.667V149.333C448,125.864,428.802,106.667,405.333,106.667z"/>
    <path fill="#78909C" d="M362.667,85.333h-213.333C137.551,85.333,128,94.885,128,106.667v42.667c0,11.782,9.551,21.333,21.333,21.333h213.333c11.782,0,21.333-9.551,21.333-21.333v-42.667C384,94.885,374.449,85.333,362.667,85.333z"/>
    <circle fill="#B0D3E6" cx="256" cy="266.667" r="96"/>
    <path fill="#E57373" d="M298.667,245.333h-21.333v-21.333c0-11.782-9.551-21.333-21.333-21.333s-21.333,9.551-21.333,21.333v21.333h-21.333c-11.782,0-21.333,9.551-21.333,21.333s9.551,21.333,21.333,21.333h21.333v21.333c0,11.782,9.551,21.333,21.333,21.333s21.333-9.551,21.333-21.333V288h21.333c11.782,0,21.333-9.551,21.333-21.333S310.449,245.333,298.667,245.333z"/>
    <path fill="#5E7A8A" d="M192,117.333h128c5.891,0,10.667-4.776,10.667-10.667s-4.776-10.667-10.667-10.667H192c-5.891,0-10.667,4.776-10.667,10.667S186.109,117.333,192,117.333z"/>
    <circle fill="#455A64" cx="256" cy="149.333" r="21.333"/>
  </g>
</svg>
